<svg version="1.1" xmlns="http://www.w3.org/2000/svg" viewBox="0 0 767.2485095233817 242.5910401576998" width="2301.7455285701453" height="727.7731204730994" filter="invert(93%) hue-rotate(180deg)">
  <!-- svg-source:excalidraw -->
  
  <defs>
    <style>
      @font-face {
        font-family: "Virgil";
        src: url("https://excalidraw.com/Virgil.woff2");
      }
      @font-face {
        font-family: "Cascadia";
        src: url("https://excalidraw.com/Cascadia.woff2");
      }
    </style>
  </defs>
  <rect x="0" y="0" width="767.2485095233817" height="242.5910401576998" fill="#ffffff"/><g stroke-linecap="round" transform="translate(10 97.03442273264568) rotate(0 52.22848892211914 20.370933532714844)"><path d="M0.02 0.05 C22.64 1.52, 43.32 0.55, 102.94 -0.76 M-0.47 -0.15 C38.54 0.91, 79.11 -0.26, 104.91 0.45 M105.95 -0.05 C105.27 13.33, 106.18 26.93, 105.43 41.54 M103.63 -0.53 C104.34 15.43, 105.53 30.95, 104.64 40.68 M105.21 41.23 C66.47 41.73, 28.7 41.36, -1.72 39.19 M104.32 40.17 C79.01 41.17, 54.12 41.2, -0.32 41.19 M-1.79 40.04 C-1.44 24.45, 1.1 9.61, -1.9 0.76 M-0.16 41.54 C-0.37 27.39, -0.13 14.33, -0.52 0.88" stroke="#000000" stroke-width="1" fill="none"/></g><g stroke-linecap="round" transform="translate(466.57475962594157 39.07197053202913) rotate(0 53.92276603055288 22.54760898452207)"><path d="M0.91 -0.43 C30.47 0.7, 63.3 -1.58, 108.03 0.61 M0.24 0.2 C30.21 -0.72, 62.58 -0.85, 107.29 -0.56 M107.99 0.89 C106.47 13.35, 107.37 23.8, 108.92 43.86 M107.96 -0.18 C107.74 12.72, 107.15 25.65, 108.52 45.54 M109.13 44.82 C75.34 45.69, 46.89 45.94, -0.27 43.41 M108.45 46 C73.56 44.66, 38.12 44.89, -0.32 44.62 M-1.56 46.37 C-0.99 30.83, -1.36 16.14, -1.96 -1.11 M-0.07 45 C-1.08 29.56, -0.9 14.77, 0.76 -0.81" stroke="#000000" stroke-width="1" fill="none"/></g><g stroke-linecap="round" transform="translate(475.5147775099777 111.14857774211953) rotate(0 65.91983634305288 22.54760898452207)"><path d="M-0.37 1.34 C34.21 -2.56, 70.37 -2.83, 130.03 -1.96 M-0.66 -0.36 C31.19 1.39, 63 1.75, 131.52 -0.3 M130.68 1.36 C131.31 11.08, 134.2 24.44, 131.05 45.41 M131.35 -0.43 C132.5 9.38, 131.47 18.96, 131.9 44.75 M132.08 46.26 C85.12 47.02, 37.84 44.68, -1.86 46.08 M132.11 45.54 C81.1 43.86, 28.58 45.18, -0.72 44.13 M0.71 43.13 C1.64 32.11, -1.18 18.88, 1.08 1.31 M0.86 45.62 C0.22 27.93, 0.3 10.96, 0.43 0.89" stroke="#000000" stroke-width="1" fill="none"/></g><g stroke-linecap="round" transform="translate(472.7028658006403 187.49582218865567) rotate(0 53.92276603055288 22.54760898452207)"><path d="M0.46 1.21 C41.88 -0.25, 78.72 -1.83, 106.53 0.95 M0 -0.24 C42.16 0.03, 85.49 0.53, 108.39 -0.69 M107.69 1.04 C108.29 10.63, 107.2 20.82, 108.94 43.21 M108.29 -0.94 C108.43 8.94, 107.99 19.09, 108.09 45.91 M106.72 45.86 C82.08 46, 55.21 47.92, -0.53 44.06 M108.62 45.48 C70.51 46.15, 31.29 46.42, 0.66 45.53 M1.9 43.28 C-1.47 28.74, 0.78 11.07, -0.26 -0.96 M-0.45 44.48 C0.42 31, 0.51 17.41, -0.12 -0.58" stroke="#000000" stroke-width="1" fill="none"/></g><g transform="translate(21.856867703524472 105.71405474613994) rotate(0 44 12)"><text x="44" y="19" font-family="Helvetica, Segoe UI Emoji" font-size="20px" fill="#000000" text-anchor="middle" style="white-space: pre;" direction="ltr">form.html</text></g><g transform="translate(476.8432425403094 48.40460518106556) rotate(0 44 12)"><text x="44" y="19" font-family="Helvetica, Segoe UI Emoji" font-size="20px" fill="#000000" text-anchor="middle" style="white-space: pre;" direction="ltr">form.html</text></g><g transform="translate(480.4782438492561 122.85857830010423) rotate(0 59.5 12)"><text x="59.5" y="19" font-family="Helvetica, Segoe UI Emoji" font-size="20px" fill="#000000" text-anchor="middle" style="white-space: pre;" direction="ltr">success.html</text></g><g transform="translate(486.8838548185238 197.6526755876921) rotate(0 43 12)"><text x="43" y="19" font-family="Helvetica, Segoe UI Emoji" font-size="20px" fill="#000000" text-anchor="middle" style="white-space: pre;" direction="ltr">error.html</text></g><g stroke-linecap="round" transform="translate(192.807647041248 87.54165465558685) rotate(0 54.72724382267441 29.143061244714602)"><path d="M56.94 0.04 C71.56 6.92, 85 17.16, 110 30.5 M55.43 0.16 C72.23 8.97, 88.19 19.61, 109.92 30.32 M109.83 28.76 C86.87 40.03, 67.7 51.03, 54.27 59.89 M109.29 29.75 C88.76 39.66, 69.03 51.47, 54.45 58.03 M54.21 58.5 C33.13 48.07, 15.39 38.25, -1.62 28.92 M54.11 58.92 C34.77 47.02, 13.14 37.02, -0.55 29.81 M1.48 29.12 C12.15 21.46, 27.72 17.72, 54.43 -1.04 M-0.02 29.74 C19.7 19.15, 40.29 9.44, 54.74 -0.48" stroke="#000000" stroke-width="1" fill="none"/></g><g stroke-linecap="round" transform="translate(647.7940218780329 30.23220509051248) rotate(0 54.72724382267441 29.143061244714602)"><path d="M53.19 0.95 C71.51 8.49, 90.55 20.14, 109.22 31.92 M54.13 -0.7 C71.96 8.13, 87.44 17.47, 109.14 29.25 M108.42 31.23 C94.95 37.27, 81.77 43.95, 54.72 59.12 M109.17 29.83 C93.97 37.37, 80.88 45.55, 54.84 57.47 M53.11 57.87 C33.43 46.91, 11.23 34.25, 0.5 31.75 M55.75 57.72 C38 49.63, 20.19 40.66, 0.17 30.66 M-0.69 30.04 C20.93 17.46, 41.8 4.79, 55.62 1.09 M-0.83 29.39 C19.93 18.36, 41.91 6.8, 54.67 0.55" stroke="#000000" stroke-width="1" fill="none"/></g><g transform="translate(225.10371632557013 103.28605645427888) rotate(0 18 12)"><text x="18" y="19" font-family="Helvetica, Segoe UI Emoji" font-size="20px" fill="#000000" text-anchor="middle" style="white-space: pre;" direction="ltr">/api</text></g><g transform="translate(680.0900911623551 45.976606889204504) rotate(0 18 12)"><text x="18" y="19" font-family="Helvetica, Segoe UI Emoji" font-size="20px" fill="#000000" text-anchor="middle" style="white-space: pre;" direction="ltr">/api</text></g><g stroke-linecap="round"><g transform="translate(124.57034291148022 97.83217683780163) rotate(0 46.18252840909091 -0.6569602272727479)"><path d="M0.52 -0.41 C15.85 -0.31, 76.62 0.03, 91.81 -0.16 M-0.67 -1.68 C14.47 -1.81, 74.77 -1.9, 90.58 -1.67" stroke="#000000" stroke-width="1" fill="none"/></g><g transform="translate(124.57034291148022 97.83217683780163) rotate(0 46.18252840909091 -0.6569602272727479)"><path d="M61.65 7.52 C72.37 4.27, 78.11 3.64, 92.09 -2.87 M61.73 8.49 C72.05 5.32, 79.05 2.64, 89.73 -1.24" stroke="#000000" stroke-width="1" fill="none"/></g><g transform="translate(124.57034291148022 97.83217683780163) rotate(0 46.18252840909091 -0.6569602272727479)"><path d="M61.75 -13 C72.31 -10.41, 78.03 -5.19, 92.09 -2.87 M61.84 -12.03 C71.95 -8.8, 78.92 -5.1, 89.73 -1.24" stroke="#000000" stroke-width="1" fill="none"/></g></g><g stroke-linecap="round"><g transform="translate(579.5567177482652 40.52272727272725) rotate(0 46.18252840909091 -0.6569602272727479)"><path d="M0.57 -0.75 C15.88 -0.77, 76.21 -1.09, 91.57 -1.21 M-0.59 1.47 C15.12 1.76, 78.4 0.67, 93.86 0.39" stroke="#000000" stroke-width="1" fill="none"/></g><g transform="translate(579.5567177482652 40.52272727272725) rotate(0 46.18252840909091 -0.6569602272727479)"><path d="M64.6 9.8 C73.93 8.61, 81.32 6.94, 93.91 0.86 M66.28 10.3 C74.35 7.33, 83.57 3.7, 93.5 0.46" stroke="#000000" stroke-width="1" fill="none"/></g><g transform="translate(579.5567177482652 40.52272727272725) rotate(0 46.18252840909091 -0.6569602272727479)"><path d="M64.25 -10.72 C73.49 -6.19, 80.98 -2.15, 93.91 0.86 M65.93 -10.22 C73.94 -6.62, 83.26 -3.68, 93.5 0.46" stroke="#000000" stroke-width="1" fill="none"/></g></g><g transform="translate(132.95990257057116 67.30944956507437) rotate(0 33.5 12)"><text x="0" y="19" font-family="Helvetica, Segoe UI Emoji" font-size="20px" fill="#000000" text-anchor="start" style="white-space: pre;" direction="ltr">request</text></g><g transform="translate(587.9462774073561 10) rotate(0 33.5 12)"><text x="0" y="19" font-family="Helvetica, Segoe UI Emoji" font-size="20px" fill="#000000" text-anchor="start" style="white-space: pre;" direction="ltr">request</text></g><g stroke-linecap="round"><g transform="translate(208.62574063875297 147.25309488913615) rotate(0 -39.7245287781158 -1.4506751350042464)"><path d="M-0.13 0.67 C-13.25 0.14, -65.56 -3.54, -78.74 -4.03 M-1.66 -0.02 C-14.87 -0.37, -66.29 -2.37, -79.31 -3.08" stroke="#000000" stroke-width="1" fill="none"/></g><g transform="translate(208.62574063875297 147.25309488913615) rotate(0 -39.7245287781158 -1.4506751350042464)"><path d="M-49.56 -10.86 C-61.16 -8.91, -66.76 -8.63, -81.04 -3.03 M-50.34 -12.71 C-56.12 -9.71, -62.91 -8.83, -78.45 -3.14" stroke="#000000" stroke-width="1" fill="none"/></g><g transform="translate(208.62574063875297 147.25309488913615) rotate(0 -39.7245287781158 -1.4506751350042464)"><path d="M-50.49 9.64 C-61.66 5.48, -66.99 -0.35, -81.04 -3.03 M-51.27 7.79 C-57.01 6.24, -63.59 2.57, -78.45 -3.14" stroke="#000000" stroke-width="1" fill="none"/></g></g><g transform="translate(152.29584007057116 157.46190170731802) rotate(0 20 12)"><text x="0" y="19" font-family="Helvetica, Segoe UI Emoji" font-size="20px" fill="#000000" text-anchor="start" style="white-space: pre;" direction="ltr">data</text></g><g stroke-linecap="round"><g transform="translate(672.1180069391195 91.22940797418119) rotate(0 -27.90448760986328 20.055709838867188)"><path d="M-1.18 -0.83 C-10.47 5.66, -45.81 32.7, -55.1 39.49 M0.4 1.35 C-9.05 7.94, -46.51 34.07, -55.68 40.7" stroke="#000000" stroke-width="1" fill="none"/></g><g transform="translate(672.1180069391195 91.22940797418119) rotate(0 -27.90448760986328 20.055709838867188)"><path d="M-39.99 17.21 C-45.57 22.73, -50.9 32.25, -57.6 40.23 M-38.05 15.39 C-44.36 24.84, -50.38 33.32, -55.86 40.78" stroke="#000000" stroke-width="1" fill="none"/></g><g transform="translate(672.1180069391195 91.22940797418119) rotate(0 -27.90448760986328 20.055709838867188)"><path d="M-28.13 33.96 C-37.98 33.44, -47.5 37.04, -57.6 40.23 M-26.19 32.14 C-36.33 36.22, -46.23 39.22, -55.86 40.78" stroke="#000000" stroke-width="1" fill="none"/></g></g><g stroke-linecap="round"><g transform="translate(698.2215225641195 104.23722047418119) rotate(0 -50.891430480955165 51.164644438056285)"><path d="M0.89 -0.11 C-15.97 16.66, -83.89 84.02, -100.93 101.13 M-0.1 -1.22 C-17.06 15.61, -84.47 84.51, -101.44 102.04" stroke="#000000" stroke-width="1" fill="none"/></g><g transform="translate(698.2215225641195 104.23722047418119) rotate(0 -50.891430480955165 51.164644438056285)"><path d="M-89.3 76.1 C-94.91 84.16, -96.46 92.61, -101.15 102 M-88.42 74.23 C-92.84 81.9, -95.54 87.93, -102.01 102.33" stroke="#000000" stroke-width="1" fill="none"/></g><g transform="translate(698.2215225641195 104.23722047418119) rotate(0 -50.891430480955165 51.164644438056285)"><path d="M-74.6 90.43 C-84.94 94.04, -91.16 97.94, -101.15 102 M-73.72 88.55 C-81.79 92.59, -88.13 95.08, -102.01 102.33" stroke="#000000" stroke-width="1" fill="none"/></g></g><g transform="translate(665.9734146539632 149.49112672418124) rotate(0 34 12)"><text x="0" y="19" font-family="Helvetica, Segoe UI Emoji" font-size="20px" fill="#000000" text-anchor="start" style="white-space: pre;" direction="ltr">redirect</text></g></svg>